# xmcd
#
# Track frame offsets:
#	150
#	17210
#	37485
#	60600
#	87080
#	110390
#	130600
#	156602
#	175522
#	202865
#
# Disc length: 3028 seconds
#
# Revision: 0
# Processed by: cddbd v1.5.2PL0 Copyright (c) Steve Scherf et al.
# Submitted via: EasyCDDAExtractor 16.0.9.1
#
DISCID=800bd20a
DTITLE=Various Artist - PHCD42 - Ngày Xuân Thăm Nhau
DYEAR=1993
DGENRE=Pop
TTITLE0=Ngọc Bích - Xuân Họp Mặt
TTITLE1=Hương Lan and Duy Khánh - Ngày Xuân Thăm Nhau
TTITLE2=Trang Thanh Lan - Mùa Xuân Đầu Tiên
TTITLE3=Duy Khánh - Mùa Xuân Lá Khô
TTITLE4=Thanh Huyền - Câu Chuyện Đầu Năm
TTITLE5=Duy Khánh - Mùa Xuân Đó Có Em
TTITLE6=Hương Lan - Gác Nhỏ Đêm Xuân
TTITLE7=Ngọc Bích - Xuân Miền Nam
TTITLE8=Quốc Biên - Thư Xuân Trên Rừng Cao
TTITLE9=Trang Thanh Lan - Hoa Bướm Ngày Xưa
EXTD=
EXTT0=
EXTT1=
EXTT2=
EXTT3=
EXTT4=
EXTT5=
EXTT6=
EXTT7=
EXTT8=
EXTT9=
PLAYORDER=
